<?xml version="1.0" standalone="no"?>
<!DOCTYPE svg PUBLIC "-//W3C//DTD SVG 20010904//EN"
 "http://www.w3.org/TR/2001/REC-SVG-20010904/DTD/svg10.dtd">
<svg version="1.0" xmlns="http://www.w3.org/2000/svg"
 width="500.000000pt" height="500.000000pt" viewBox="0 0 500.000000 500.000000"
 preserveAspectRatio="xMidYMid meet">
<metadata>
Created by potrace 1.14, written by Peter Selinger 2001-2017
</metadata>
<g transform="translate(0.000000,500.000000) scale(0.100000,-0.100000)"
fill="#000000" stroke="none">
<path d="M3845 4454 c-534 -72 -920 -491 -1070 -1161 -41 -180 -63 -354 -80
-623 -40 -630 -96 -935 -231 -1258 -169 -403 -450 -649 -809 -707 -335 -55
-733 41 -924 221 -136 128 -174 219 -175 419 0 92 5 151 18 201 l18 72 52 6
c108 14 212 80 250 159 61 127 36 249 -65 313 -138 87 -338 58 -458 -65 -56
-57 -103 -143 -127 -231 -27 -95 -24 -306 5 -415 135 -507 654 -796 1339 -747
319 23 529 87 770 233 288 176 516 462 637 799 73 205 114 436 150 840 63 724
119 1100 196 1331 88 266 244 465 414 528 118 44 266 51 365 16 101 -35 186
-128 226 -245 15 -43 19 -83 18 -180 0 -152 -22 -241 -94 -385 l-49 -97 82 7
c235 21 394 107 463 253 23 48 28 74 32 164 6 138 -16 214 -87 308 -110 145
-269 222 -515 249 -122 14 -225 12 -351 -5z"/>
</g>
</svg>
