<?xml version="1.0" encoding="utf-8"?>
<!-- Generator: Adobe Illustrator 24.0.1, SVG Export Plug-In . SVG Version: 6.00 Build 0)  -->
<svg version="1.1" xmlns="http://www.w3.org/2000/svg" xmlns:xlink="http://www.w3.org/1999/xlink" x="0px" y="0px"
	 viewBox="0 0 200 200" style="enable-background:new 0 0 200 200;" xml:space="preserve">
<style type="text/css">
	.st0{fill:#F7EF5E;}
	.st1{fill:none;}
	.st2{font-family:'MVBoli';}
	.st3{font-size:18px;}
	.st4{fill:#42D0DB;}
	.st5{font-family:'SegoeScript-Bold';}
	.st6{font-size:30px;}
	.st7{font-family:'Montserrat-Medium';}
	.st8{fill:#FF0000;}
	.st9{font-family:'Montserrat-Bold';}
	.st10{font-size:17px;}
</style>
<g id="Layer_1">
	<g>
		<polygon class="st0" points="99.3,1.5 108.5,12.1 119.7,3.6 126.5,15.9 139.2,10 143.4,23.4 157,20.3 158.3,34.2 172.3,34 
			170.6,47.9 184.4,50.6 179.8,63.9 192.7,69.4 185.5,81.4 197,89.5 187.5,99.7 197,110 185.5,118.1 192.7,130.1 179.8,135.6 
			184.4,148.9 170.6,151.6 172.3,165.5 158.3,165.3 157,179.2 143.4,176.1 139.2,189.5 126.5,183.6 119.7,195.9 108.5,187.4 
			99.3,198 90.1,187.4 78.9,195.9 72,183.6 59.3,189.5 55.2,176.1 41.5,179.2 40.3,165.3 26.3,165.5 27.9,151.6 14.2,148.9 
			18.7,135.6 5.8,130.1 13,118.1 1.6,110 11.1,99.7 1.6,89.5 13,81.4 5.8,69.4 18.7,63.9 14.2,50.6 27.9,47.9 26.3,34 40.3,34.2 
			41.5,20.3 55.2,23.4 59.3,10 72,15.9 78.9,3.6 90.1,12.1 		"/>
	</g>
	<rect x="24" y="34" class="st1" width="145" height="82"/>
	<text transform="matrix(1 0 0 1 77.1289 47.7988)"><tspan x="0" y="0" class="st2 st3">NOV</tspan><tspan x="-5.1" y="21.6" class="st2 st3">24TH</tspan><tspan x="-49.9" y="57.6" class="st4 st5 st6">20% OFF</tspan></text>
	<rect x="35" y="122.9" class="st1" width="122.5" height="32.3"/>
	<text transform="matrix(1 0 0 1 35.666 136.6494)" class="st2 st3">EVERYTHING!</text>
</g>
<g id="Layer_2">
	<g>
		<polygon class="st0" points="99.3,1.5 108.5,12.1 119.7,3.6 126.5,15.9 139.2,10 143.4,23.4 157,20.3 158.3,34.2 172.3,34 
			170.6,47.9 184.4,50.6 179.8,63.9 192.7,69.4 185.5,81.4 197,89.5 187.5,99.7 197,110 185.5,118.1 192.7,130.1 179.8,135.6 
			184.4,148.9 170.6,151.6 172.3,165.5 158.3,165.3 157,179.2 143.4,176.1 139.2,189.5 126.5,183.6 119.7,195.9 108.5,187.4 
			99.3,198 90.1,187.4 78.9,195.9 72,183.6 59.3,189.5 55.2,176.1 41.5,179.2 40.3,165.3 26.3,165.5 27.9,151.6 14.2,148.9 
			18.7,135.6 5.8,130.1 13,118.1 1.6,110 11.1,99.7 1.6,89.5 13,81.4 5.8,69.4 18.7,63.9 14.2,50.6 27.9,47.9 26.3,34 40.3,34.2 
			41.5,20.3 55.2,23.4 59.3,10 72,15.9 78.9,3.6 90.1,12.1 		"/>
	</g>
	<rect x="24" y="34" class="st1" width="145" height="82"/>
	<text transform="matrix(1 0 0 1 75.2241 47.356)"><tspan x="0" y="0" class="st7 st3">NOV</tspan><tspan x="-1.8" y="21.6" class="st7 st3">30-31</tspan><tspan x="-47" y="57.6" class="st8 st9 st6">30% OFF</tspan></text>
	<rect x="35" y="122.9" class="st1" width="122.5" height="32.3"/>
	<text transform="matrix(1 0 0 1 36.856 135.4648)" class="st7 st10">EVERYTHING!</text>
</g>
</svg>
